<?xml version="1.0"?>
<svg xmlns="http://www.w3.org/2000/svg" xmlns:xlink="http://www.w3.org/1999/xlink" xmlns:svgjs="http://svgjs.com/svgjs" version="1.1" width="512" height="512" x="0" y="0" viewBox="0 0 512 512" style="enable-background:new 0 0 512 512" xml:space="preserve" class=""><g>
<g xmlns="http://www.w3.org/2000/svg">
	<g>
		<path d="M497,201h-42.438c-4.484-16.254-10.937-31.821-19.274-46.505l30.017-30.017c5.858-5.858,5.858-15.355,0-21.213    l-56.568-56.569c-5.857-5.858-15.355-5.857-21.213,0l-30.018,30.017c-14.684-8.337-30.251-14.79-46.505-19.275V15    c0-8.284-6.716-15-15-15h-80c-8.284,0-15,6.716-15,15v42.438c-16.254,4.485-31.821,10.938-46.505,19.275l-30.018-30.017    c-5.857-5.857-15.355-5.858-21.213,0l-56.568,56.569c-5.858,5.858-5.858,15.355,0,21.213l30.017,30.017    C68.376,169.179,61.924,184.746,57.44,201H15c-8.284,0-15,6.716-15,15v80c0,8.284,6.716,15,15,15h42.438    c4.484,16.254,10.937,31.821,19.274,46.505l-30.017,30.017c-5.858,5.858-5.858,15.355,0,21.213l56.568,56.569    c5.857,5.858,15.355,5.857,21.213,0l30.018-30.017c14.684,8.337,30.251,14.79,46.505,19.275V497c0,8.284,6.716,15,15,15h80    c8.284,0,15-6.716,15-15v-42.438c16.254-4.485,31.821-10.938,46.505-19.275l30.018,30.017c5.857,5.857,15.355,5.858,21.213,0    l56.568-56.569c5.858-5.858,5.858-15.355,0-21.213l-30.017-30.017c8.338-14.684,14.79-30.251,19.274-46.505H497    c8.284,0,15-6.716,15-15v-80C512,207.716,505.284,201,497,201z M256,371c-63.411,0-115-51.589-115-115s51.589-115,115-115    s115,51.589,115,115S319.411,371,256,371z" fill="#d6d6e2" data-original="#000000" style="" class=""/>
	</g>
</g>
<g xmlns="http://www.w3.org/2000/svg">
</g>
<g xmlns="http://www.w3.org/2000/svg">
</g>
<g xmlns="http://www.w3.org/2000/svg">
</g>
<g xmlns="http://www.w3.org/2000/svg">
</g>
<g xmlns="http://www.w3.org/2000/svg">
</g>
<g xmlns="http://www.w3.org/2000/svg">
</g>
<g xmlns="http://www.w3.org/2000/svg">
</g>
<g xmlns="http://www.w3.org/2000/svg">
</g>
<g xmlns="http://www.w3.org/2000/svg">
</g>
<g xmlns="http://www.w3.org/2000/svg">
</g>
<g xmlns="http://www.w3.org/2000/svg">
</g>
<g xmlns="http://www.w3.org/2000/svg">
</g>
<g xmlns="http://www.w3.org/2000/svg">
</g>
<g xmlns="http://www.w3.org/2000/svg">
</g>
<g xmlns="http://www.w3.org/2000/svg">
</g>
</g></svg>
